<?xml version="1.0" encoding="UTF-8" standalone="no"?>
<svg xmlns:dc="http://purl.org/dc/elements/1.1/" xmlns:cc="http://creativecommons.org/ns#" xmlns:rdf="http://www.w3.org/1999/02/22-rdf-syntax-ns#" xmlns:svg="http://www.w3.org/2000/svg" xmlns="http://www.w3.org/2000/svg" width="192" height="39.00016" viewBox="0 0 50.799999 10.318792" version="1.1" id="svg8">
  <g id="layer1" transform="translate(31.315327,-309.85119)">
    <g id="g117" transform="translate(0.13229198,-0.13228869)">
      <polygon transform="matrix(0.26458333,0,0,0.26458333,-31.315327,310.11577)" id="polygon10" points="23.5,16.5 27.4,16.5 27.4,38 31.8,38 31.8,16.5 35.9,16.5 35.9,38 38.6,38 38.6,13.8 9.6,13.8 9.6,9.7 38.6,9.7 38.6,7 4.2,7 4.2,2.7 38.6,2.7 38.6,0 0,0 0,38 15,38 15,16.5 19.1,16.5 19.1,38 23.5,38" style="fill:#003763"/>
      <path style="fill:#003763" d="m -14.990536,320.16994 c -0.740833,0 -1.296458,-0.58209 -1.296458,-1.34938 0,-0.76729 0.582083,-1.34937 1.296458,-1.34937 0.47625,0 0.767292,0.1852 1.005417,0.39687 l 0.07937,0.0794 -0.291042,0.29104 -0.07938,-0.0794 c -0.15875,-0.15875 -0.370416,-0.3175 -0.714375,-0.3175 -0.502708,0 -0.899583,0.42334 -0.899583,0.9525 0,0.55563 0.396875,0.97896 0.899583,0.97896 0.291042,0 0.502709,-0.10583 0.740834,-0.34396 l 0.07937,-0.0794 0.291041,0.26458 -0.07937,0.0794 c -0.238125,0.23812 -0.529166,0.47625 -1.031875,0.47625 z"/>
      <path style="fill:#003763" d="m -11.471577,320.16994 c -0.740834,0 -1.296459,-0.58209 -1.296459,-1.34938 0,-0.76729 0.582084,-1.34937 1.296459,-1.34937 0.740833,0 1.296458,0.55562 1.296458,1.32291 v 0.0529 c 0,0.74083 -0.582083,1.32292 -1.296458,1.32292 z m 0,-2.32834 c -0.502709,0 -0.899584,0.42334 -0.899584,0.9525 0,0.55563 0.396875,0.97896 0.899584,0.97896 0.502708,0 0.899583,-0.39687 0.899583,-0.9525 0,-0.55562 -0.396875,-0.97896 -0.899583,-0.97896 z"/>
      <polygon transform="matrix(0.26458333,0,0,0.26458333,-31.315327,310.11577)" id="polygon18" points="92.2,27.9 93.7,27.9 93.7,37.8 92.5,37.8 86.8,30.6 86.8,37.8 85.4,37.8 85.4,27.9 86.6,27.9 92.2,35" style="fill:#003763"/>
      <path style="fill:#003763" d="m -4.1161607,320.14348 c -0.396875,0 -0.714375,-0.13229 -1.031875,-0.42334 l -0.079375,-0.0794 0.2645834,-0.29104 0.079375,0.0794 c 0.2645833,0.23813 0.47625,0.3175 0.7672916,0.3175 0.2910417,0 0.47625,-0.15875 0.47625,-0.37041 0,-0.15875 -0.052917,-0.29105 -0.5820833,-0.39688 -0.635,-0.13229 -0.8995833,-0.37042 -0.8995833,-0.79375 0,-0.42333 0.3704166,-0.74083 0.873125,-0.74083 0.3439583,0 0.6085416,0.0794 0.8731249,0.3175 l 0.079375,0.0794 -0.2645833,0.3175 -0.079375,-0.0794 c -0.1852083,-0.15875 -0.396875,-0.23813 -0.635,-0.23813 -0.2645833,0 -0.47625,0.13229 -0.47625,0.34396 0,0.13229 0,0.29104 0.6085417,0.42333 0.6085416,0.1323 0.873125,0.37042 0.873125,0.7673 0.052917,0.44979 -0.3175,0.76729 -0.8466667,0.76729 z"/>
      <path style="fill:#003763" d="m -0.75595238,320.14348 c -0.66145832,0 -1.08479162,-0.44979 -1.08479162,-1.13771 v -1.50813 h 0.396875 v 1.48167 c 0,0.50271 0.238125,0.76729 0.68791662,0.76729 0.44979166,0 0.68791665,-0.26458 0.68791665,-0.76729 v -1.50812 h 0.396875 v 1.48166 c 0,0.76729 -0.42333333,1.19063 -1.08479165,1.19063 z"/>
      <polygon transform="matrix(0.26458333,0,0,0.26458333,-31.315327,310.11577)" points="132.2,37.8 125.5,37.8 125.5,27.9 127,27.9 127,36.3 132.2,36.3" style="fill:#003763"/>
      <polygon transform="matrix(0.26458333,0,0,0.26458333,-31.315327,310.11577)" points="138,29.4 134.9,29.4 134.9,27.9 142.6,27.9 142.6,29.4 139.5,29.4 139.5,37.8 138,37.8" style="fill:#003763"/>
      <rect height="2.6193748" width="0.39687499" y="317.49765" x="7.7636299" style="fill:#003763"/>
      <polygon transform="matrix(0.26458333,0,0,0.26458333,-31.315327,310.11577)" points="162,27.9 163.5,27.9 163.5,37.8 162.4,37.8 156.7,30.6 156.7,37.8 155.2,37.8 155.2,27.9 156.4,27.9 162,35" style="fill:#003763"/>
      <path style="fill:#003763" d="m 14.695714,320.16994 c -0.767292,0 -1.296458,-0.55563 -1.296458,-1.34938 0,-0.66146 0.47625,-1.34937 1.296458,-1.34937 0.370417,0 0.661458,0.10583 0.926042,0.34395 l 0.07938,0.0794 -0.264584,0.3175 -0.07937,-0.0794 c -0.15875,-0.13229 -0.343958,-0.26458 -0.687916,-0.26458 -0.47625,0 -0.873125,0.42333 -0.873125,0.9525 0,0.58208 0.370416,0.97896 0.899583,0.97896 0.3175,0 0.555625,-0.15875 0.635,-0.21167 v -0.52916 h -0.79375 v -0.39688 h 1.190625 v 1.08479 l -0.02646,0.0265 c -0.264584,0.23813 -0.635,0.39688 -1.005417,0.39688 z"/>
      <polygon transform="matrix(0.26458333,0,0,0.26458333,-31.315327,310.11577)" points="185,0.6 183.9,0.6 183.9,0 186.7,0 186.7,0.6 185.6,0.6 185.6,3.5 185,3.5" style="fill:#003763"/>
      <polygon transform="matrix(0.26458333,0,0,0.26458333,-31.315327,310.11577)" points="188,1.1 188,3.5 187.4,3.5 187.4,0 188.1,0 189.2,2.5 190.3,0 191,0 191,3.5 190.4,3.5 190.4,1.1 189.4,3.5 189,3.5" style="fill:#003763"/>
      <polygon transform="matrix(0.26458333,0,0,0.26458333,-31.315327,310.11577)" points="121.8,4.6 111.3,4.6 111.3,0 136.7,0 136.7,4.6 126.4,4.6 126.4,22.3 121.8,22.3" style="fill:#003763"/>
      <rect height="5.8737502" width="1.2170833" y="310.14224" x="14.563421" style="fill:#003763"/>
      <polygon transform="matrix(0.26458333,0,0,0.26458333,-31.315327,310.11577)" points="71.3,14.3 61.4,14.3 61.4,22.2 56.8,22.2 56.8,0 79.2,0 79.2,4.6 61.4,4.6 61.4,9.7 71.3,9.7" style="fill:#003763"/>
    </g>
  </g>
</svg>
