<svg width="240" height="47" viewBox="0 0 240 47" fill="none" xmlns="http://www.w3.org/2000/svg">
<g clip-path="url(#clip0_6679_213)">
<path fill-rule="evenodd" clip-rule="evenodd" d="M0.140625 0.301758L0.142252 44.9068H18.9183V19.6649H23.9866V44.9068H29.4828V19.6649H34.4827V44.9068H39.9789V19.6649H45.1169V44.9068H48.4654V16.5049V16.4972H12.1629V11.6111H48.4654V8.4449H5.41062V3.46947H48.4654V0.301758H0.140625Z" fill="white"/>
<path fill-rule="evenodd" clip-rule="evenodd" d="M77.2372 45.3005C73.7554 45.3005 71.1309 42.739 71.1309 39.342C71.1309 35.9683 73.827 33.3281 77.2715 33.3281C79.5606 33.3281 80.8916 34.2066 81.9866 35.1544L82.3918 35.5051L81.0478 36.8066L80.6687 36.4606C79.8991 35.7574 78.8919 35.0405 77.2536 35.0405C74.8618 35.0405 73.0574 36.8651 73.0574 39.2821C73.0574 41.6944 74.9072 43.5867 77.2715 43.5867C78.6023 43.5867 79.6128 43.1498 80.7614 42.0759L81.1307 41.7299L82.4486 42.9483L82.0647 43.3051C81.0087 44.2914 79.6078 45.3005 77.2372 45.3005Z" fill="white"/>
<path fill-rule="evenodd" clip-rule="evenodd" d="M93.858 45.3005C90.3484 45.3005 87.7012 42.739 87.7012 39.342C87.7012 35.9683 90.4199 33.3281 93.8888 33.3281C97.3431 33.3281 99.9901 35.8436 100.042 39.1775V39.4036C99.9901 42.7099 97.2731 45.3005 93.858 45.3005ZM93.858 35.0405C91.445 35.0405 89.626 36.8651 89.626 39.2821C89.626 41.6944 91.4987 43.5867 93.8888 43.5867C96.3018 43.5867 98.1191 41.7621 98.1191 39.342C98.1191 36.9297 96.248 35.0405 93.858 35.0405Z" fill="white"/>
<path fill-rule="evenodd" clip-rule="evenodd" d="M115.407 33.5078V41.7986L108.453 33.5078H106.881V45.114H108.742V36.6293L115.856 45.114H117.268V33.5078H115.407Z" fill="white"/>
<path fill-rule="evenodd" clip-rule="evenodd" d="M128.662 45.267C126.786 45.267 125.283 44.7039 123.789 43.4454L123.398 43.1161L124.646 41.7638L125.047 42.1084C126.238 43.1485 127.266 43.5532 128.709 43.5532C130.068 43.5532 131.016 42.8915 131.016 41.947C131.016 41.2254 130.813 40.6347 128.268 40.1515C125.32 39.5854 124.061 38.5469 124.061 36.6746C124.061 34.7823 125.839 33.3545 128.198 33.3545C129.85 33.3545 131.059 33.7608 132.373 34.753L132.788 35.0668L131.583 36.4807L131.168 36.1454C130.256 35.4023 129.331 35.0684 128.166 35.0684C126.885 35.0684 125.955 35.6977 125.955 36.5685C125.955 37.1792 125.955 37.8731 128.8 38.4269C131.639 38.9731 132.907 40.027 132.907 41.8423C132.907 43.8593 131.161 45.267 128.662 45.267Z" fill="white"/>
<path fill-rule="evenodd" clip-rule="evenodd" d="M144.606 45.2832C141.443 45.2832 139.475 43.3387 139.475 40.2062V33.5078H141.37V40.1308C141.37 42.3479 142.53 43.5694 144.637 43.5694C146.733 43.5694 147.841 42.4062 147.841 40.2062V33.5078H149.733V40.117C149.733 43.3033 147.769 45.2832 144.606 45.2832Z" fill="white"/>
<path fill-rule="evenodd" clip-rule="evenodd" d="M157.047 33.5078V45.114H165.525V43.3878H158.941V33.5078H157.047Z" fill="white"/>
<path fill-rule="evenodd" clip-rule="evenodd" d="M168.812 33.5078V35.2385H172.726V45.114H174.618V35.2385H178.528V33.5078H168.812Z" fill="white"/>
<path fill-rule="evenodd" clip-rule="evenodd" d="M184.904 45.1131H186.794V33.5068H184.904V45.1131Z" fill="white"/>
<path fill-rule="evenodd" clip-rule="evenodd" d="M202.771 33.5078V41.7986L195.817 33.5078H194.246V45.114H196.103V36.6293L203.221 45.114H204.631V33.5078H202.771Z" fill="white"/>
<path fill-rule="evenodd" clip-rule="evenodd" d="M217.641 45.3005C214.01 45.3005 211.473 42.8513 211.473 39.342C211.473 36.3852 213.743 33.3281 217.545 33.3281C219.338 33.3281 220.619 33.7652 221.982 34.8389L222.399 35.1652L221.153 36.5191L220.749 36.1898C220.029 35.5913 219.136 35.0405 217.495 35.0405C215.195 35.0405 213.395 36.9036 213.395 39.2821C213.395 41.8666 215.114 43.6022 217.672 43.6022C219.176 43.6022 220.287 42.9452 220.716 42.6467V40.3436H216.964V38.6159H222.576V43.4298L222.492 43.5036C221.11 44.6606 219.39 45.3005 217.641 45.3005Z" fill="white"/>
<path fill-rule="evenodd" clip-rule="evenodd" d="M230.271 0.282227V0.948469H231.636V4.41663H232.373V0.948469H233.734V0.282227H230.271Z" fill="white"/>
<path fill-rule="evenodd" clip-rule="evenodd" d="M238.207 0.282227L236.871 3.17339L235.551 0.282227H234.617V4.41663H235.355V1.57625L236.636 4.41663H237.101L238.385 1.57778V4.41663H239.122V0.282227H238.207Z" fill="white"/>
<path fill-rule="evenodd" clip-rule="evenodd" d="M139.406 0.296875V5.71384H152.519V26.4325H158.243V5.71384H171.205V0.296875H139.406Z" fill="white"/>
<path fill-rule="evenodd" clip-rule="evenodd" d="M217.055 26.4313H222.784V0.30957H217.055V26.4313Z" fill="white"/>
<path fill-rule="evenodd" clip-rule="evenodd" d="M71.1969 0.296875L71.1953 26.4325H76.9452V17.1555H89.2912V11.74H76.9452V5.71384H99.2893V0.296875H71.1969Z" fill="white"/>
</g>
<defs>
<clipPath id="clip0_6679_213">
<rect width="239.437" height="46.7194" fill="white"/>
</clipPath>
</defs>
</svg>
