<?xml version="1.0" encoding="UTF-8" standalone="no"?>
<svg xmlns="http://www.w3.org/2000/svg" width="627.558832401" height="159.347609877" viewBox="0 0 648.84338 164.75211" version="1.1">
  <g transform="translate(-69.864004,-407.12899)">
    <g transform="matrix(1.25,0,0,1.25,-131.88253,-190.79641)">
      <g>
        <g>
          <path d="m 345.275,544.416 c -3.568,-4.443 -9.703,-6.793 -17.742,-6.793 -9.587,0 -17.67,2.254 -24.067,6.67 -3.952,-4.473 -10.598,-6.67 -20.345,-6.67 -11.604,0 -20.314,1.539 -29.122,5.141 l -0.337,0.137 -14.593,65.969 21.271,0 c 0,0 12.27,-55.478 12.444,-56.261 2.536,-0.827 4.551,-1.127 7.711,-1.127 3.326,0 5.784,0.871 7.107,2.524 1.107,1.381 1.42,3.34 0.903,5.664 l -10.88,49.2 21.272,0 c 0,0 11.913,-53.84 12.028,-54.358 2.538,-2.029 5.405,-3.03 8.764,-3.03 2.953,0 5.068,0.769 6.284,2.282 1.159,1.444 1.47,3.577 0.9,6.16 l -10.826,48.946 21.274,0 10.762,-48.643 c 1.398,-6.312 0.428,-11.779 -2.808,-15.811 z" style="fill:#004e8b"/>
          <path d="m 463.286,539.504 c -14.266,-1.951 -27.686,0.423 -38.761,4.621 l -14.59,64.745 21.264,0 c 0,0 12.129,-54.793 12.301,-55.571 4.232,-0.932 7.608,-1.122 12.266,0.464 l 0.619,0.287 6.901,-14.546 z" style="fill:#004e8b"/>
          <path d="m 409.316,545.331 c -3.852,-4.794 -9.699,-7.329 -16.914,-7.329 -4.843,0 -8.523,0.661 -12.332,2.141 0.52,-2.328 7.681,-34.497 7.681,-34.497 l -21.895,2.854 -15.523,69.876 -5.803,26.271 0.361,0.263 c 4.523,3.375 13.08,5.232 24.096,5.232 22.674,0 38.748,-13.88 44.098,-38.079 2.466,-11.138 1.127,-20.631 -3.769,-26.732 z m -17.464,27.704 c -3.484,15.766 -9.902,23.756 -19.074,23.756 -1.975,0 -3.767,-0.285 -5.076,-0.767 0.356,-1.61 9.474,-42.746 9.732,-43.971 2.063,-0.934 4.08,-1.335 6.865,-1.335 3.171,0 5.433,0.897 6.919,2.745 2.621,3.261 2.827,9.663 0.634,19.572 z" style="fill:#004e8b"/>
          <path d="m 551.279,539.397 c 0.357,-1.616 4.401,-19.935 4.401,-19.935 l -0.928,0.07 c -8.356,0.624 -15.066,2.144 -21.125,4.79 l -0.325,0.14 c 0,0 -3.624,16.137 -3.818,17.002 -2.337,0.353 -4.197,0.64 -6.272,1.041 l -0.392,0.095 -3.859,13.042 c 0,0 4.853,-0.452 7.592,-0.686 -1.235,5.584 -7.576,34.242 -7.586,34.304 0,0 -0.064,0.279 -0.064,0.322 -0.367,1.775 -0.546,3.467 -0.546,5.066 0,3.855 1.056,7.153 3.139,9.711 2.986,3.664 7.824,5.523 14.385,5.523 4.283,0 8.224,-1.012 10.479,-1.961 l 0.334,-0.139 2.762,-12.468 0.176,-0.877 -5.691,0.205 c -1.654,0 -2.729,-0.338 -3.287,-1.032 -0.391,-0.49 -0.587,-1.228 -0.587,-2.25 0,-0.899 0.15,-2.022 0.457,-3.395 0,0 7.394,-33.493 7.618,-34.508 0.42,-0.015 3.182,-0.163 5.782,-0.248 2.51,-0.081 4.875,-0.094 4.875,-0.094 l 2.959,-13.378 0.197,-0.885 c 0,0 -9.154,0.475 -10.676,0.544 z" style="fill:#004e8b"/>
          <path d="m 634.291,526.333 c -0.377,1.703 -18.266,82.537 -18.266,82.537 l 21.269,0 c 0,0 19.7,-89.034 20.079,-90.77 -9.195,4.021 -15.966,6.002 -23.082,8.233 z" style="fill:#004e8b"/>
          <path d="m 511.107,544.532 c -3.682,-4.584 -10.271,-6.909 -19.588,-6.909 -6.39,0 -12.887,0.887 -19.312,2.653 l -0.375,0.101 -4.29,14.78 1.292,-0.479 c 4.103,-1.514 10.258,-3.321 16.269,-3.321 4.487,0 7.323,0.815 8.672,2.499 0.684,0.85 1.022,1.943 1.022,3.314 0,0.749 -0.099,1.582 -0.305,2.5 0,0 -0.447,1.991 -0.599,2.692 -18.324,1.708 -39.67,6.193 -43.899,25.305 -0.436,1.963 -0.654,3.81 -0.654,5.532 0,3.737 1.021,6.897 3.055,9.428 4.007,4.987 11.917,7.515 23.519,7.515 11.25,0 21.291,-1.833 28.273,-5.16 l 0.305,-0.146 9.138,-41.298 c 1.825,-8.258 0.974,-14.651 -2.523,-19.006 z m -41.015,42.668 c 2.242,-10.138 9.869,-13.051 21.455,-14.241 -0.38,1.713 -5.075,22.935 -5.227,23.625 -1.888,0.783 -4.331,1.225 -6.968,1.225 -4.045,0 -6.848,-0.938 -8.327,-2.781 -0.894,-1.116 -1.341,-2.604 -1.341,-4.451 0,-1.016 0.136,-2.145 0.408,-3.377 z" style="fill:#004e8b"/>
          <path d="m 615.924,545.35 c -3.969,-5.126 -10.449,-7.727 -19.262,-7.727 -19.717,0 -34.451,13.428 -39.422,35.919 -0.867,3.905 -1.297,7.574 -1.297,10.968 0,6.848 1.75,12.574 5.202,16.875 4.599,5.732 12.187,8.757 21.941,8.757 7.949,0 14.904,-1.048 21.263,-3.194 l 0.37,-0.126 3.492,-15.937 -1.49,0.623 c -2.344,1.092 -8.827,3.632 -18.329,3.632 -4.673,0 -7.937,-1.077 -9.982,-3.3 -1.777,-1.928 -2.648,-4.741 -2.648,-8.56 0,-0.586 0.037,-1.22 0.077,-1.857 6.765,-0.623 14.54,-1.521 22.02,-2.842 7.829,-1.381 14.947,-3.237 21.014,-5.715 0.12,-0.449 0.12,-0.449 0.12,-0.449 1.411,-5.442 1.36,-7.606 1.36,-11.928 0,-6.256 -1.48,-11.322 -4.429,-15.139 z m -22.613,5.368 c 2.73,0 4.676,0.771 5.953,2.36 1.187,1.481 1.784,3.707 1.784,6.647 0,2.057 -0.294,4.422 -0.876,7.177 -5.874,1.413 -15.808,2.831 -23.241,3.415 2.428,-12.444 8.347,-19.599 16.38,-19.599 z" style="fill:#004e8b"/>
          <path d="m 536.221,481.217 c -97.272,7.478 -146.268,16.413 -214.976,29.991 0.638,-0.126 1.275,-0.206 1.919,-0.312 62.617,-10.039 137.393,-18.282 206.473,-21.908 141.478,-7.288 166.302,11.709 90.134,37.765 0.01,0.006 0.015,0.011 0.02,0.018 4.952,-1.476 19.48,-5.801 23.977,-7.285 70.207,-24.574 42.521,-49.796 -107.547,-38.269 z" style="fill:#ffd629"/>
          <path d="m 214.538,538.936 c 1.046,-5.084 2.035,-9.887 2.132,-10.368 0.865,0 21.31,0 28.881,0 1.561,0 2.293,-0.491 2.537,-0.697 l 0.117,0 0.039,-0.183 -2.734,-0.783 3.027,-14.822 -51.459,0 -7.523,36.45 c 6.851,-3.075 15.149,-6.291 24.983,-9.597 z" style="fill:#004e8b"/>
          <path d="m 208.639,567.479 c 1.084,0 23.396,0 23.396,0 l 3.333,-16.068 -23.396,0 c 0,0 0.677,-3.303 1.433,-6.984 -5.199,2.004 -9.059,3.512 -12.846,5.124 -3.79,1.615 -8.938,3.924 -12.418,5.77 l -11.012,53.424 55.633,0 3.871,-18.395 c 0,0 -31.106,0 -32.715,0 0.316,-1.533 4.509,-21.845 4.721,-22.871 z" style="fill:#004e8b"/>
          <path d="m 216.411,534.781 c -63.291,20.532 -67.492,38.005 -35.298,39.034 -0.443,-0.076 -0.864,-0.15 -1.279,-0.221 -9.332,-0.881 -13.022,-2.984 -13.443,-6.643 -1.12,-9.778 24.622,-23.769 89.888,-41.85 15.061,-4.173 31.768,-7.526 49.333,-11.04 -0.04,0.007 -0.082,0.014 -0.121,0.024 0.274,-0.056 0.554,-0.118 0.827,-0.175 -28.182,4.464 -61.247,11.492 -90.741,21.029 z" style="fill:#75b851"/>
          <path d="m 413.994,497.038 c -27.519,3.587 -53.935,7.63 -78.624,11.946 59.99,-9.168 129.621,-16.602 194.267,-19.996 141.416,-7.286 166.277,11.688 90.237,37.731 34.442,-10.452 54.558,-20.649 53.499,-28.758 -2.461,-18.872 -118.586,-19.285 -259.379,-0.923 z" style="fill:#75b851"/>
          <path d="m 220.746,537.818 c 27.722,-9.894 58.47,-18.318 84.884,-23.753 -17.565,3.514 -34.272,6.867 -49.333,11.04 -65.266,18.081 -92.647,32.757 -90.681,41.856 0.778,3.602 4.904,5.756 14.236,6.637 -8.051,-1.396 -10.954,-2.324 -11.066,-6.011 -0.185,-6.333 16.436,-17.045 51.96,-29.769 z" style="fill:#ffd629"/>
        </g>
      </g>
    </g>
  </g>
</svg>
