<svg width="178" height="80" viewBox="0 0 178 80" fill="none" xmlns="http://www.w3.org/2000/svg">
<path d="M78.5183 0L44.0138 34.5046L9.50919 0H0V3.93703V79.3756H9.50919V13.4542L44.0138 47.9587L78.5183 13.4542V79.3756H88.0275V3.93703V0H78.5183Z" fill="white"/>
<path d="M110.173 15.1367H100.664V79.3754H110.173V15.1367Z" fill="white"/>
<path d="M110.173 0H100.664V9.50919H110.173V0Z" fill="white"/>
<path d="M177.999 0H168.49V9.50919H177.999V0Z" fill="white"/>
<path d="M132.828 0H123.318V61.8098C123.318 71.5095 131.184 79.3676 140.876 79.3676H157.037V69.8585H140.757C136.376 69.8585 132.82 66.3024 132.82 61.9209V24.6461H149.735V15.1369H132.82V0H132.828Z" fill="white"/>
<path d="M177.999 15.1367H168.49V79.3754H177.999V15.1367Z" fill="white"/>
</svg>
