<?xml version="1.0" encoding="utf-8"?>
<svg version="1.1" id="Layer_1" xmlns="http://www.w3.org/2000/svg" xmlns:xlink="http://www.w3.org/1999/xlink" x="0px" y="0px" viewBox="0 0 512 512" xml:space="preserve">
<defs>
<radialGradient id="cg1" cx="376.8999" cy="1762.4004" r="256" gradientTransform="matrix(1 0 0 -1 -120.8999 2018.4004)" gradientUnits="userSpaceOnUse">
  <stop offset="0" style="stop-color:#FF0A1A"/>
  <stop offset="0.678" style="stop-color:#D9060F"/>
  <stop offset="1" style="stop-color:#800000"/>
</radialGradient>
<radialGradient id="cg2" cx="255.4455" cy="201.1557" r="226.3398" gradientTransform="matrix(1 0 0 -1 0 516)" gradientUnits="userSpaceOnUse">
  <stop offset="0" style="stop-color:#FFFFFF"/>
  <stop offset="0.761" style="stop-color:#E5E5E5"/>
</radialGradient>
</defs>
<circle cx="256" cy="256" r="256" fill="url(#cg1)"/>
<path fill="url(#cg2)" d="M77.85,203.4c4.63-1.12,9.26-1.68,14.03-1.54c15.57-0.42,30.86,7.86,40.54,20.48c4.63,6.03,8,13.05,9.82,20.34c-7.15,0-14.31,0-21.46,0c-3.23-6.59-8-12.34-14.31-15.85c-3.51-1.96-7.29-3.23-11.22-3.79c-3.65-0.14-7.43-0.42-11.08,0.56c-6.03,1.4-11.64,4.63-15.99,9.4c-5.61,5.47-9.26,13.19-9.68,21.18c-0.7,7.72,0.7,15.71,4.91,22.16c4.07,6.17,9.68,11.36,16.41,14.03c11.36,4.35,24.97,1.68,33.67-7.15c2.95-3.09,5.47-6.59,7.29-10.52c7.15,0,14.31,0,21.46,0c-1.82,7.86-5.61,15.15-10.52,21.46c-3.37,3.65-6.59,7.43-10.66,10.1c-18.38,13.19-45.17,12.48-62.56-2.52c-5.33-4.77-10.38-10.24-13.75-16.83c-6.17-11.5-7.86-25.39-5.61-38.29c1.82-10.94,7.43-21.04,15.01-28.76C60.6,210.83,68.73,205.64,77.85,203.4z M153.04,201.85c6.87,0,13.61,0,20.48,0c0,37.45,0,74.91,0,112.36c-6.87,0-13.61,0-20.48,0C153.04,276.62,153.04,239.31,153.04,201.85z M214.76,224.16c3.93-0.84,7.86-0.42,11.78-0.42c4.49,0.42,9.12,1.12,13.47,2.67c4.35,1.54,8.84,3.51,11.78,7.29c3.51,4.35,4.77,10.24,5.05,15.99c0,21.46,0,43.06,0,64.53c-6.87,0-13.75,0.14-20.76-0.14c0-2.95,0-5.89,0-8.84c-6.03,5.47-14.03,7.86-21.74,8.56c-4.91,0.84-9.96,0.14-14.73-1.54c-6.03-2.1-10.94-7.29-12.76-13.75c-1.96-6.87-1.54-14.31,0.7-20.9c2.38-6.87,8.42-11.64,14.87-13.89c8.28-3.09,17.25-3.51,25.81-5.33c2.95,0,5.89-1.96,7.01-4.77c0.84-3.23,0.14-7.15-2.52-9.26c-2.95-1.96-6.59-2.38-9.96-2.52c-3.09,0.14-6.31,0.14-8.98,1.82c-3.51,2.1-5.19,6.31-5.89,10.24c-6.87-0.14-13.75,0-20.48-0.14c0.84-7.01,2.24-14.45,7.01-19.78C199.33,227.66,207.18,224.86,214.76,224.16z M229.77,272.69c-4.07,0.98-8,2.24-12.06,2.95c-3.23,0.7-6.73,1.82-8.98,4.35c-3.23,3.93-3.51,10.1-0.98,14.59c1.12,1.96,3.23,3.09,5.19,3.79c6.45,1.26,13.61-0.84,18.38-5.61c4.91-6.31,3.93-14.87,3.93-22.44C233.42,270.87,231.87,272.41,229.77,272.69z M305.52,226.68c4.21-1.12,8.42-2.95,12.76-2.38c0,7.29,0.42,14.59,0.28,21.88c-3.79-0.56-7.72-0.98-11.36,0.14c-8,2.24-14.59,9.68-15.57,18.38c0,1.96-0.56,3.79-0.56,5.75c0,14.59,0,29.18,0,43.77c-6.73,0-13.61,0-20.34,0c-0.14-28.76,0-57.51,0-86.27c6.59,0,13.19,0.14,19.78,0.42c0,3.51-0.14,7.15,0,10.66C294.29,233.56,299.34,228.93,305.52,226.68z M356.44,224.58c3.09-0.28,6.17-0.56,9.12-0.42c18.38,0.28,35.07,15.01,39.42,33.39c3.79,15.01,0.14,32.4-10.8,43.2c-6.31,7.15-15.01,11.92-24.13,13.33c-4.49,0-8.84,0-13.33,0c-13.19-1.96-24.69-11.36-31.28-23.29c-6.73-13.05-6.73-29.6-0.14-42.78C331.61,235.94,343.11,226.54,356.44,224.58z M357.98,245.76c-6.03,1.4-11.22,5.89-14.45,11.5c-4.63,8.14-3.93,19.22,1.82,26.51c5.89,8.84,17.96,11.78,27.21,7.29c5.33-2.52,9.54-7.43,11.78-13.05c2.52-6.45,2.1-14.03-0.98-20.2c-3.23-6.17-9.12-11.08-15.85-12.2C364.57,245.34,361.21,245.2,357.98,245.76z M419.14,248.99c18.24,0,36.33,0,54.57,0c0,6.31,0,12.62,0,18.94c-18.24,0-36.33,0-54.57,0C419.14,261.61,419.14,255.3,419.14,248.99z"/>
</svg>
