<svg width="67" height="26" viewBox="0 0 67 26" fill="none" xmlns="http://www.w3.org/2000/svg">
<g clip-path="url(#clip0_10079_44198)">
<path d="M65.3239 21.6318C65.1703 21.5079 64.9944 21.4107 64.8077 21.3469C64.6051 21.2769 64.3908 21.2411 64.176 21.2411C64.1683 21.2411 64.1605 21.2415 64.1532 21.2415C63.96 21.2415 63.7944 21.2838 63.6573 21.3702C63.521 21.4565 63.4318 21.5571 63.39 21.6719C63.3481 21.7872 63.3611 21.902 63.4296 22.0173C63.4978 22.1317 63.6422 22.2202 63.8625 22.2824L64.6559 22.4874C64.8409 22.5345 65.0207 22.6018 65.1915 22.686C65.3588 22.7702 65.5045 22.8747 65.6278 22.9981C65.7512 23.1225 65.849 23.2658 65.9219 23.4294C65.9944 23.593 66.031 23.7761 66.031 23.9803C66.031 24.2013 65.9814 24.4055 65.8827 24.5928C65.7822 24.7824 65.6451 24.9499 65.4791 25.0846C65.3019 25.2279 65.1001 25.3393 64.8845 25.4127C64.6551 25.4921 64.4127 25.5322 64.1704 25.5322C64.1648 25.5322 64.1588 25.5322 64.1532 25.5322C64.1471 25.5322 64.1389 25.5322 64.1325 25.5322C63.797 25.5322 63.4641 25.4735 63.1489 25.3596C62.8488 25.2525 62.5685 25.0919 62.3228 24.889L62.8514 24.1391C63.0058 24.2941 63.1951 24.4154 63.4201 24.5043C63.6478 24.5915 63.8893 24.6369 64.1333 24.6369C64.1398 24.6369 64.1467 24.6369 64.1532 24.6369C64.308 24.6369 64.4455 24.6114 64.5667 24.5605C64.6878 24.5095 64.7896 24.4452 64.8707 24.3679C64.9522 24.2906 65.0087 24.2034 65.0397 24.1059C65.0699 24.0092 65.072 23.9138 65.0457 23.821C65.0194 23.7281 64.9591 23.6409 64.8638 23.5589C64.7693 23.4773 64.6378 23.4143 64.471 23.3694L63.6245 23.1509C63.4581 23.1086 63.2964 23.0447 63.1459 22.9619C63.0032 22.8846 62.8734 22.7844 62.7617 22.6661C62.6535 22.55 62.5664 22.4153 62.5047 22.2685C62.4413 22.1162 62.4086 21.9525 62.4086 21.7876C62.4086 21.7824 62.409 21.7764 62.409 21.7712C62.409 21.5679 62.4551 21.3788 62.5474 21.2044C62.641 21.0278 62.769 20.8724 62.9243 20.7464C63.089 20.6125 63.2778 20.5089 63.4796 20.4416C63.6909 20.3682 63.9156 20.3319 64.1532 20.3319C64.4843 20.3319 64.7926 20.3816 65.0794 20.4817C65.3549 20.575 65.6145 20.7131 65.846 20.8892L65.3239 21.6318ZM61.4656 22.9321C61.4656 23.299 61.3961 23.6418 61.2577 23.96C61.1249 24.2699 60.9309 24.5514 60.689 24.7858C60.1858 25.265 59.517 25.5322 58.8228 25.5322C58.818 25.5322 58.8133 25.5322 58.8081 25.5322C58.8012 25.5322 58.7939 25.5322 58.7874 25.5322C58.4386 25.5322 58.0932 25.4645 57.7702 25.3332C57.4576 25.2059 57.1709 25.0202 56.9277 24.7858C56.6858 24.5514 56.4918 24.2699 56.359 23.96C56.221 23.6418 56.1507 23.2982 56.1507 22.9511C56.1507 22.9446 56.1507 22.9385 56.1507 22.9321C56.1507 22.5647 56.2201 22.2224 56.3585 21.9042C56.4918 21.5942 56.6858 21.3127 56.9277 21.0779C57.1709 20.8435 57.4572 20.6574 57.7702 20.5309C58.0928 20.4001 58.4386 20.3319 58.7866 20.3319C58.7935 20.3319 58.8012 20.3319 58.8077 20.3319C58.8133 20.3319 58.8189 20.3319 58.8241 20.3319C59.1729 20.3319 59.5196 20.3997 59.843 20.5309C60.1573 20.657 60.4445 20.8435 60.689 21.0783C61.1848 21.5593 61.466 22.2224 61.466 22.9144C61.466 22.92 61.466 22.926 61.466 22.9321H61.4656ZM60.4971 22.9291C60.4971 22.6946 60.4531 22.4745 60.3647 22.269C60.2802 22.0687 60.1578 21.8856 60.0047 21.7315C59.8503 21.5774 59.6671 21.4543 59.4657 21.3702C59.26 21.283 59.0379 21.2372 58.8137 21.2372C58.8111 21.2372 58.8077 21.2372 58.8047 21.2372C58.571 21.2372 58.3524 21.2817 58.1471 21.3702C57.9475 21.4552 57.7651 21.5778 57.6116 21.7315C57.4585 21.8856 57.3356 22.0687 57.2515 22.269C57.164 22.4732 57.1191 22.6946 57.1191 22.9174C57.1191 22.9209 57.1191 22.9252 57.1191 22.9286C57.1191 23.163 57.1631 23.3845 57.2515 23.5917C57.3399 23.7998 57.4598 23.9803 57.6116 24.1322C57.7638 24.285 57.9419 24.4055 58.1471 24.494C58.3515 24.5816 58.5714 24.6269 58.7935 24.6269C58.7969 24.6269 58.8012 24.6269 58.8047 24.6269C59.0384 24.6269 59.2587 24.5829 59.4661 24.494C59.6671 24.4098 59.8503 24.2863 60.0042 24.1322C60.1582 23.9777 60.2806 23.7938 60.3647 23.5917C60.4531 23.3841 60.4971 23.1635 60.4971 22.9291ZM55.0313 23.0858C54.8511 23.3491 54.6001 23.5563 54.3073 23.6824L55.1732 25.42H54.1284L53.3419 23.8417H52.3243V25.42H51.3852V20.4355H53.5666C53.5713 20.4355 53.5756 20.4355 53.5804 20.4355C54.0344 20.4355 54.4721 20.6086 54.8028 20.9199C54.9623 21.0701 55.0861 21.2493 55.1762 21.4569C55.3983 21.9728 55.3521 22.623 55.0313 23.0858ZM54.3535 22.2297C54.3535 22.2275 54.3535 22.2249 54.3535 22.2232C54.3535 22.1192 54.3319 22.0164 54.2901 21.921C54.25 21.8282 54.1931 21.744 54.1224 21.6719C54.0499 21.6003 53.9646 21.5433 53.8706 21.5036C53.7753 21.4613 53.6722 21.4401 53.5679 21.4401C53.5674 21.4401 53.567 21.4401 53.5666 21.4401H52.3243V23.0188H53.5666C53.7748 23.0171 53.974 22.9334 54.1224 22.7866C54.1931 22.7149 54.25 22.6303 54.2901 22.5379C54.3324 22.443 54.3535 22.3398 54.3535 22.2293V22.2297ZM50.299 23.5762C50.299 23.8637 50.2494 24.1214 50.1498 24.3494C50.0562 24.5691 49.9165 24.7685 49.7397 24.9291C49.5599 25.0932 49.3461 25.2167 49.1154 25.2944C48.613 25.4636 48.0383 25.4627 47.5355 25.2944C47.3048 25.2167 47.0905 25.0932 46.9111 24.9291C46.7339 24.7681 46.5959 24.5691 46.5011 24.3494C46.4028 24.121 46.3519 23.9932 46.3519 23.7057V20.4355H47.291V23.5762C47.291 23.7221 47.3173 23.8546 47.3703 23.9738C47.423 24.0934 47.4958 24.1952 47.5885 24.2794C47.6808 24.3632 47.7912 24.4275 47.9188 24.4715C48.1754 24.5605 48.4824 24.5609 48.7389 24.4715C48.9839 24.3925 49.1844 24.2108 49.287 23.9742C49.3405 23.8546 49.3663 23.7225 49.3663 23.5766V20.4355H50.2986V23.5762H50.299ZM45.2929 24.5169C45.054 24.7957 44.7586 25.022 44.4266 25.1795C44.0894 25.341 43.7186 25.4256 43.3439 25.4256C43.3374 25.4256 43.3297 25.4256 43.3228 25.4256C43.3176 25.4256 43.312 25.4256 43.3064 25.4256C42.958 25.4256 42.6117 25.3578 42.2888 25.2262C41.9744 25.0997 41.6864 24.9136 41.4419 24.6792C40.946 24.1974 40.6653 23.5347 40.6653 22.8423C40.6653 22.8367 40.6653 22.8306 40.6653 22.8254C40.6653 22.8194 40.6653 22.8134 40.6653 22.8073C40.6653 22.1157 40.946 21.4526 41.4419 20.9713C41.6864 20.7364 41.9744 20.5499 42.2888 20.4239C42.6113 20.2926 42.9575 20.2249 43.3059 20.2249C43.312 20.2249 43.3171 20.2249 43.3228 20.2249C43.3279 20.2249 43.3331 20.2249 43.3383 20.2249C43.6798 20.2249 44.0178 20.2952 44.3309 20.4303C44.6405 20.5642 44.9225 20.7563 45.1605 20.9946L44.5197 21.6313C44.3658 21.4772 44.1838 21.3529 43.9842 21.2666C43.7802 21.1789 43.5603 21.1336 43.3391 21.1336C43.3335 21.1336 43.3284 21.1336 43.3228 21.1336C43.0895 21.1336 42.8709 21.1781 42.6686 21.2666C42.469 21.352 42.2875 21.4751 42.1335 21.6279C41.8162 21.9417 41.6372 22.37 41.6372 22.8168C41.6372 22.8198 41.6372 22.822 41.6372 22.8246C41.6372 22.8276 41.6372 22.8319 41.6372 22.8345C41.6372 23.059 41.6821 23.2818 41.7696 23.4881C41.8541 23.691 41.9774 23.8749 42.1335 24.0295C42.2875 24.1814 42.4655 24.3019 42.6686 24.3904C42.8709 24.478 43.0895 24.5233 43.3107 24.5233C43.3146 24.5233 43.3189 24.5233 43.3228 24.5233C43.5297 24.5233 43.7238 24.4892 43.9049 24.4202C44.0829 24.3528 44.4007 24.162 44.4007 24.0424V23.3681H43.3228V22.4594H45.2929V24.3848V24.5169ZM39.937 25.42H36.2943V20.4567H39.937V21.3654H37.2335V22.4866H39.4813V23.3949H37.2335V24.5294H39.937V25.42ZM34.6623 21.6318C34.5083 21.5079 34.3333 21.4107 34.147 21.3469C33.9435 21.2765 33.7296 21.2411 33.5144 21.2411C33.5071 21.2411 33.4994 21.2415 33.4925 21.2415C33.2984 21.2415 33.1333 21.2838 32.9966 21.3702C32.8599 21.4565 32.7706 21.5575 32.7288 21.6719C32.687 21.7872 32.6999 21.902 32.7685 22.0173C32.8366 22.1317 32.9811 22.2202 33.2018 22.2824L33.9948 22.4874C34.1845 22.5366 34.3626 22.6027 34.5303 22.6864C34.6981 22.7706 34.8429 22.8751 34.9663 22.9986C35.09 23.1225 35.1879 23.2658 35.2608 23.4294C35.3332 23.5934 35.3699 23.7765 35.3699 23.9803C35.3699 24.2017 35.3198 24.4055 35.2211 24.5933C35.1211 24.7824 34.9835 24.9499 34.8179 25.0846C34.6407 25.2279 34.4385 25.3393 34.2229 25.4131C33.9935 25.4917 33.752 25.5322 33.5088 25.5322C33.5037 25.5322 33.4981 25.5322 33.4925 25.5322C33.1354 25.5322 32.8 25.4744 32.4878 25.3596C32.1872 25.2521 31.907 25.0919 31.6616 24.889L32.1898 24.1391C32.3446 24.2941 32.5339 24.4154 32.7581 24.5043C32.9862 24.5915 33.2281 24.6369 33.4722 24.6369C33.4787 24.6369 33.486 24.6369 33.4925 24.6369C33.6464 24.6369 33.7839 24.6114 33.9055 24.5605C34.0176 24.5151 34.1207 24.4504 34.2095 24.3679C34.291 24.2906 34.3471 24.2034 34.3786 24.1059C34.3949 24.0567 34.4036 24.0049 34.4036 23.9526C34.4036 23.9077 34.3971 23.8637 34.385 23.821C34.3587 23.7281 34.2979 23.6409 34.2026 23.5589C34.1082 23.4773 33.9771 23.4143 33.8094 23.3694L32.9638 23.1509C32.7969 23.1091 32.6353 23.0447 32.4843 22.9619C32.3425 22.8846 32.2123 22.7844 32.101 22.6666C31.9919 22.5504 31.9044 22.4153 31.8432 22.269C31.7798 22.1162 31.747 21.9521 31.747 21.7868C31.747 21.782 31.747 21.776 31.747 21.7712C31.747 21.5679 31.7936 21.3788 31.8858 21.2044C31.9798 21.0278 32.1083 20.8724 32.2631 20.7468C32.4283 20.6125 32.6163 20.5089 32.8185 20.4416C33.0298 20.3686 33.2544 20.3319 33.4925 20.3319C33.4998 20.3319 33.5071 20.3319 33.5144 20.3319C33.8215 20.3319 34.1276 20.3824 34.4178 20.4817C34.6938 20.575 34.9529 20.7131 35.1849 20.8892L34.6627 21.6318H34.6623Z" fill="#E8266B"/>
<path d="M65.9731 18.0742L65.958 0H61.5301V3.3755C60.3944 2.55397 59.0991 2.13694 57.6623 2.13694C55.9035 2.13694 54.2714 2.71499 52.8114 3.85426C52.607 4.01399 52.3272 4.27258 51.9555 4.64687L51.9296 4.67407C51.1902 5.5228 50.6503 6.39528 50.3273 7.25998C49.9518 8.22614 49.7582 9.25489 49.7582 10.2918C49.7582 10.2927 49.7582 10.2949 49.7582 10.2957C49.7582 11.6724 50.0971 13.0055 50.7637 14.2566C50.981 14.6715 51.2863 15.1265 51.6895 15.6312C52.1103 16.1073 52.4458 16.4432 52.7183 16.6591C53.0197 16.8965 53.3064 17.0959 53.5591 17.2432C54.8372 18.0366 56.1967 18.439 57.6011 18.439L57.7986 18.4385C58.3837 18.4385 59.0922 18.3246 59.9364 18.0884C60.334 17.9559 60.7186 17.7793 61.0787 17.5656C61.2192 17.4802 61.3671 17.3791 61.5301 17.257V18.0742H65.9731ZM61.5305 10.3415C61.5305 11.2239 61.2714 12.0178 60.7415 12.7655C60.6268 12.9239 60.4577 13.1169 60.2624 13.3142L60.0072 13.5417C59.7221 13.7545 59.4789 13.91 59.2931 13.9993C58.7537 14.248 58.2147 14.3736 57.6925 14.3736C56.6085 14.3736 55.6892 13.9626 54.904 13.142C54.5948 12.7772 54.3624 12.4258 54.2145 12.102C53.9593 11.5451 53.8256 10.9385 53.8247 10.3259V10.2646C53.8247 9.24366 54.1542 8.34529 54.8182 7.5367C55.6241 6.63833 56.5796 6.20144 57.7378 6.20144C58.2367 6.20144 58.7933 6.34649 59.3828 6.62883C59.6406 6.75791 59.9045 6.94397 60.1546 7.16975C60.5216 7.52505 60.6035 7.63297 60.6341 7.67614C61.2365 8.44372 61.5305 9.29072 61.5305 10.2646V10.3415ZM22.4694 7.88682L21.8437 8.48127V3.287H17.4007V18.0958H21.8437V12.9011L22.4694 13.4964C22.5767 13.3958 25.4144 10.6916 25.4144 10.6916C25.4144 10.6916 22.5767 7.9874 22.4694 7.88682ZM34.6553 3.32413L28.873 3.30988L24.0635 7.88595C24.1709 7.9874 27.009 10.6912 27.009 10.6912L34.6557 3.32413H34.6553ZM27.0094 10.6916C27.0094 10.6916 24.1713 13.3958 24.0639 13.4964L28.873 18.0733L34.6553 18.0586L27.0085 10.6916H27.009H27.0094ZM48.7237 18.0729V3.36514L44.2657 3.37464C43.1627 2.55224 41.8971 2.13737 40.4888 2.13737C38.5623 2.13737 36.8125 2.78579 35.2645 4.08652C33.4363 5.81291 32.5088 7.89761 32.5088 10.2957C32.5088 12.225 33.1323 13.9864 34.375 15.5504C36.0265 17.4672 38.0677 18.439 40.4427 18.439H40.4578C41.9195 18.439 43.195 18.0448 44.2652 17.2647V18.0733H48.7237V18.0729ZM43.0156 13.325C42.2097 14.0213 41.412 14.3589 40.5794 14.3589H40.2457C39.6713 14.3589 39.0422 14.156 38.3752 13.7541C37.1532 12.8367 36.5598 11.6996 36.5598 10.2802C36.5598 9.3749 36.8427 8.52747 37.4261 7.69082C38.2971 6.6992 39.2302 6.21655 40.2758 6.21655H40.5182C41.1417 6.21655 41.7928 6.42031 42.4516 6.82223C43.6728 7.71154 44.2652 8.84304 44.2652 10.2957C44.2652 11.4648 43.8565 12.4564 43.0156 13.325ZM7.97962 2.13651C6.05306 2.13651 4.30329 2.78536 2.75574 4.08652C0.927492 5.81247 0 7.89674 0 10.2957C0 12.2242 0.623502 13.9859 1.8662 15.55C3.51723 17.4668 5.55892 18.4385 7.93349 18.4385H7.94858C9.41032 18.4385 10.6858 18.0444 11.756 17.2643V18.0729H16.2141V3.36428L11.7564 3.3742C10.6534 2.55181 9.38833 2.13651 7.97962 2.13651ZM10.5068 13.3254C9.70051 14.0218 8.90324 14.3594 8.07061 14.3594H7.73643C7.16165 14.3594 6.53298 14.156 5.86506 13.7541C4.64393 12.8359 4.05018 11.6996 4.05018 10.2802C4.05018 9.3749 4.33347 8.52747 4.91774 7.69082C5.78874 6.6992 6.72098 6.21698 7.76662 6.21698H8.00894C8.63374 6.21698 9.28355 6.42031 9.94327 6.82266C11.1635 7.71154 11.756 8.84304 11.756 10.2957C11.756 11.4648 11.3477 12.4555 10.5068 13.325V13.3254Z" fill="#E8266B"/>
</g>
<defs>
<clipPath id="clip0_10079_44198">
<rect width="66.031" height="25.5322" fill="white"/>
</clipPath>
</defs>
</svg>
