<svg width="116" height="117" viewBox="0 0 116 117" fill="none" xmlns="http://www.w3.org/2000/svg">
<g clip-path="url(#clip0_2316_84429)">
<g clip-path="url(#clip1_2316_84429)">
<path d="M89.7855 35.0159H92.0769L97.3685 46.7126H95.2113L93.6785 43.1801H87.9754L86.3749 46.7126H84.2887L89.7855 35.0159ZM93.1129 41.9135L90.8658 36.7516L88.5333 41.9135H93.1129Z" fill="white"/>
<path d="M86.7782 52.0267C86.5826 51.6821 86.4745 51.2948 86.4632 50.8987C86.4608 50.5306 86.5466 50.1673 86.7135 49.8393C86.8805 49.5112 87.1236 49.2279 87.4226 49.0132C88.1632 48.481 89.0629 48.217 89.9736 48.2645C90.8217 48.2121 91.6616 48.4564 92.3493 48.9555C92.6102 49.1481 92.8228 49.3986 92.9704 49.6873C93.118 49.976 93.1966 50.295 93.2 50.6192C93.1992 50.9916 93.1206 51.3597 92.9691 51.6999C92.8176 52.0401 92.5967 52.3448 92.3205 52.5946C91.793 53.0441 91.2127 53.4277 90.5925 53.7369L93.2544 56.2768C93.4163 55.8498 93.5305 55.5315 93.6004 55.3263C93.6863 55.0353 93.7526 54.7389 93.7989 54.439H95.5425C95.4335 55.1909 95.2055 55.9206 94.867 56.6007C94.5343 57.2817 94.3646 57.5634 94.3646 57.4248L96.9156 59.9114H94.6496L93.2776 58.6104C92.8277 59.0113 92.3273 59.3518 91.7892 59.623C90.9351 60.0133 90.004 60.2059 89.0652 60.1865C87.8781 60.2914 86.6953 59.9431 85.7545 59.2116C85.4376 58.938 85.1815 58.601 85.0029 58.2224C84.8243 57.8437 84.727 57.4318 84.7175 57.0133C84.7092 56.5935 84.7953 56.1773 84.9694 55.7953C85.1435 55.4133 85.4012 55.0752 85.7234 54.8061C86.433 54.2693 87.2027 53.817 88.0171 53.4586C87.5331 53.0462 87.1143 52.5631 86.7749 52.0256M91.1004 58.5594C91.5625 58.3405 91.977 58.033 92.3205 57.6544L89.0175 54.4379C88.3739 54.7515 87.7666 55.1346 87.2063 55.5803C86.9974 55.7606 86.8306 55.9846 86.7178 56.2364C86.6049 56.4882 86.5487 56.7618 86.5531 57.0377C86.5461 57.3312 86.6216 57.6207 86.771 57.8735C86.9204 58.1262 87.1377 58.3319 87.3982 58.4673C87.9461 58.7962 88.5737 58.9684 89.2127 58.9653C89.8645 58.9821 90.5108 58.8433 91.0982 58.5605M90.9596 51.959C91.1373 51.8105 91.2813 51.6257 91.3817 51.417C91.4821 51.2083 91.5367 50.9805 91.5419 50.749C91.5419 50.5788 91.5039 50.4108 91.4306 50.2573C91.3573 50.1038 91.2505 49.9686 91.1182 49.8617C90.7924 49.5993 90.3814 49.4659 89.9636 49.4868C89.6807 49.4545 89.3941 49.491 89.1284 49.5934C88.8626 49.6957 88.6256 49.8608 88.4374 50.0746C88.292 50.262 88.2138 50.4929 88.2156 50.7301C88.2196 51.0691 88.3367 51.397 88.5484 51.6618C88.8857 52.0803 89.2587 52.4688 89.663 52.823C90.1229 52.5788 90.5572 52.2894 90.9596 51.959Z" fill="white"/>
<path d="M83.8253 62.3992H86.6358L90.8228 72.2892L95.0186 62.3992H97.8147V74.0937H95.948V67.1806C95.948 66.9421 95.9635 66.5484 95.9913 65.9938C96.019 65.4393 96.0256 64.8503 96.0256 64.2192L91.7877 74.0904H89.8246L85.6099 64.2192V64.5753C85.6099 64.8658 85.6254 65.305 85.6476 65.8918C85.6698 66.4785 85.6875 66.9066 85.6875 67.1773V74.0904H83.8242L83.8253 62.3992Z" fill="white"/>
<path d="M57.8699 0.00221702L13.8933 74.2023H24.0606L59.8253 11.2687V74.2001H67.7965V0L57.8699 0.00221702Z" fill="white"/>
<path d="M56.7774 21.4622L48.7551 35.5646V74.1986H56.7774V21.4622Z" fill="white"/>
<path d="M70.4167 21.4622L78.4368 35.5646V74.1986H70.4167V21.4622Z" fill="white"/>
</g>
<path d="M-0.0123556 104.281L4.09786 95.2046H5.38149L9.50467 104.281H8.14324L4.47387 95.9307H4.99251L1.32314 104.281H-0.0123556ZM1.73805 102.012L2.08813 100.974H7.19672L7.57274 102.012H1.73805ZM11.0461 104.281V97.6593H11.992V103.458H15.5771V104.281H11.0461ZM18.1763 104.281L15.2629 97.6593H16.2845L18.9614 103.77H18.375L21.0709 97.6593H22.0168L19.1128 104.281H18.1763ZM20.3494 104.281L23.348 97.6593H24.2845L27.2925 104.281H26.2993L23.6223 98.189H24.0007L21.3237 104.281H20.3494ZM21.6264 102.625L21.8818 101.869H25.6088L25.8831 102.625H21.6264ZM28.836 104.281V97.6593H31.4184C31.9985 97.6593 32.4936 97.7507 32.9035 97.9336C33.3134 98.1165 33.6287 98.3813 33.8494 98.7282C34.0701 99.075 34.1805 99.4881 34.1805 99.9673C34.1805 100.447 34.0701 100.86 33.8494 101.206C33.6287 101.547 33.3134 101.809 32.9035 101.992C32.4936 102.174 31.9985 102.266 31.4184 102.266H29.3562L29.7819 101.831V104.281H28.836ZM33.2629 104.281L31.5792 101.878H32.5913L34.294 104.281H33.2629ZM29.7819 101.925L29.3562 101.462H31.39C31.9954 101.462 32.4526 101.333 32.7616 101.074C33.0769 100.809 33.2345 100.44 33.2345 99.9673C33.2345 99.4944 33.0769 99.1286 32.7616 98.8701C32.4526 98.6115 31.9954 98.4822 31.39 98.4822H29.3562L29.7819 98.0093V101.925ZM37.1252 100.516H40.5306V101.32H37.1252V100.516ZM37.2104 103.458H41.0697V104.281H36.2644V97.6593H40.9373V98.4822H37.2104V103.458ZM42.5706 104.281V103.638L47.0259 98.1133L47.13 98.4822H42.6368V97.6593H47.9813V98.3025L43.5449 103.827L43.4314 103.458H48.1043V104.281H42.5706ZM56.7187 104.384C56.105 104.384 55.5604 104.285 55.085 104.086C54.6096 103.887 54.2336 103.611 53.957 103.256C53.6804 102.902 53.5421 102.491 53.5421 102.025C53.5421 101.618 53.6328 101.247 53.8143 100.91C53.9959 100.572 54.2854 100.248 54.6831 99.9372C55.0807 99.6173 55.6037 99.2889 56.252 98.9517C56.7792 98.6751 57.1898 98.4331 57.4837 98.2257C57.7863 98.0182 57.998 97.8237 58.1191 97.6422C58.2487 97.452 58.3135 97.2489 58.3135 97.0328C58.3135 96.7389 58.2098 96.5012 58.0024 96.3197C57.7949 96.1295 57.4967 96.0344 57.1077 96.0344C56.7014 96.0344 56.3816 96.1381 56.1482 96.3456C55.9235 96.5444 55.8111 96.808 55.8111 97.1365C55.8111 97.3007 55.837 97.4607 55.8889 97.6163C55.9494 97.7632 56.0531 97.9318 56.2001 98.1219C56.3557 98.3034 56.5761 98.5368 56.8614 98.8221L61.6588 103.594L60.9586 104.423L55.863 99.3537C55.5604 99.0512 55.3227 98.7832 55.1498 98.5498C54.977 98.3078 54.8516 98.0744 54.7738 97.8496C54.696 97.6249 54.6571 97.3958 54.6571 97.1624C54.6571 96.7562 54.7565 96.4018 54.9554 96.0992C55.1628 95.7881 55.4481 95.5503 55.8111 95.3861C56.1828 95.2132 56.615 95.1268 57.1077 95.1268C57.5658 95.1268 57.9635 95.2046 58.3006 95.3602C58.6377 95.5071 58.897 95.7232 59.0785 96.0085C59.2687 96.2851 59.3638 96.6222 59.3638 97.0198C59.3638 97.3656 59.2773 97.6854 59.1045 97.9793C58.9402 98.2732 58.6723 98.5584 58.3006 98.8351C57.9289 99.1117 57.4275 99.4099 56.7965 99.7297C56.2779 99.9977 55.8716 100.248 55.5777 100.482C55.2838 100.706 55.072 100.931 54.9424 101.156C54.8214 101.381 54.7609 101.627 54.7609 101.895C54.7609 102.18 54.843 102.435 55.0072 102.66C55.1801 102.876 55.4178 103.045 55.7203 103.166C56.0315 103.287 56.3903 103.347 56.7965 103.347C57.3757 103.347 57.8986 103.222 58.3654 102.971C58.8322 102.721 59.2212 102.345 59.5323 101.843C59.8522 101.342 60.0856 100.719 60.2325 99.9761L61.2309 100.3C61.058 101.173 60.7598 101.912 60.3362 102.517C59.9213 103.122 59.407 103.585 58.7933 103.905C58.1796 104.225 57.488 104.384 56.7187 104.384ZM66.8605 104.281V95.2046H67.9237L71.995 102.064H71.4245L75.444 95.2046H76.5072L76.5202 104.281H75.2754L75.2625 97.1624H75.5607L71.9821 103.179H71.3856L67.7811 97.1624H68.1052V104.281H66.8605ZM78.4288 104.281L81.4274 97.6593H82.3639L85.3719 104.281H84.3787L81.7017 98.189H82.0801L79.4031 104.281H78.4288ZM79.7058 102.625L79.9612 101.869H83.6882L83.9625 102.625H79.7058ZM86.9154 104.281V97.6593H89.4977C90.0779 97.6593 90.573 97.7507 90.9829 97.9336C91.3928 98.1165 91.7081 98.3813 91.9288 98.7282C92.1495 99.075 92.2599 99.4881 92.2599 99.9673C92.2599 100.447 92.1495 100.86 91.9288 101.206C91.7081 101.547 91.3928 101.809 90.9829 101.992C90.573 102.174 90.0779 102.266 89.4977 102.266H87.4356L87.8613 101.831V104.281H86.9154ZM91.3423 104.281L89.6586 101.878H90.6707L92.3734 104.281H91.3423ZM87.8613 101.925L87.4356 101.462H89.4694C90.0748 101.462 90.532 101.333 90.841 101.074C91.1563 100.809 91.3139 100.44 91.3139 99.9673C91.3139 99.4944 91.1563 99.1286 90.841 98.8701C90.532 98.6115 90.0748 98.4822 89.4694 98.4822H87.4356L87.8613 98.0093V101.925ZM97.1996 104.356C96.6951 104.356 96.2127 104.281 95.7524 104.129C95.292 103.972 94.9294 103.77 94.6646 103.524L95.0145 102.786C95.2668 103.007 95.5884 103.19 95.9794 103.335C96.3704 103.48 96.7771 103.552 97.1996 103.552C97.5843 103.552 97.8965 103.508 98.1361 103.42C98.3757 103.332 98.5523 103.212 98.6658 103.061C98.7793 102.903 98.8361 102.726 98.8361 102.531C98.8361 102.304 98.7604 102.121 98.6091 101.982C98.464 101.843 98.2717 101.733 98.0321 101.651C97.7987 101.563 97.5402 101.487 97.2564 101.424C96.9726 101.361 96.6857 101.288 96.3956 101.206C96.1118 101.118 95.8501 101.008 95.6105 100.875C95.3772 100.743 95.188 100.566 95.0429 100.346C94.8979 100.119 94.8254 99.8286 94.8254 99.4754C94.8254 99.1349 94.9137 98.8228 95.0902 98.539C95.2731 98.2489 95.5506 98.0187 95.9226 97.8485C96.301 97.6719 96.7803 97.5836 97.3605 97.5836C97.7451 97.5836 98.1267 97.634 98.505 97.7349C98.8834 97.8358 99.2113 97.9809 99.4888 98.1701L99.1766 98.9268C98.8929 98.7376 98.5933 98.602 98.278 98.5201C97.9627 98.4318 97.6568 98.3876 97.3605 98.3876C96.9884 98.3876 96.6825 98.4349 96.4429 98.5295C96.2033 98.6241 96.0267 98.7502 95.9132 98.9079C95.806 99.0655 95.7524 99.2421 95.7524 99.4376C95.7524 99.6709 95.8249 99.857 95.9699 99.9957C96.1213 100.134 96.3136 100.245 96.547 100.327C96.7866 100.409 97.0483 100.484 97.3321 100.554C97.6159 100.617 97.8996 100.689 98.1834 100.771C98.4735 100.853 98.7352 100.961 98.9685 101.093C99.2082 101.225 99.4005 101.402 99.5455 101.623C99.6906 101.843 99.7631 102.127 99.7631 102.474C99.7631 102.808 99.6717 103.12 99.4888 103.411C99.3059 103.694 99.0221 103.924 98.6375 104.101C98.2591 104.271 97.7798 104.356 97.1996 104.356ZM100.698 104.281L103.697 97.6593H104.633L107.641 104.281H106.648L103.971 98.189H104.349L101.672 104.281H100.698ZM101.975 102.625L102.23 101.869H105.957L106.232 102.625H101.975ZM109.185 104.281V97.6593H110.131V103.458H113.716V104.281H109.185Z" fill="white"/>
</g>
<defs>
<clipPath id="clip0_2316_84429">
<rect width="115.379" height="116.454" fill="white"/>
</clipPath>
<clipPath id="clip1_2316_84429">
<rect width="83.9238" height="74.1979" fill="white" transform="translate(13.8943)"/>
</clipPath>
</defs>
</svg>
