<svg width="2366" height="388" viewBox="0 0 2366 388" fill="none" xmlns="http://www.w3.org/2000/svg">
<g clip-path="url(#clip0_10128_182)">
<path d="M542.278 102.926C623.034 102.926 669.482 167.318 669.482 247.019C669.482 252.297 669.482 255.464 668.954 260.214H452.549C458.355 319.329 500.053 352.582 548.612 352.582C586.087 352.582 612.477 337.276 634.646 314.053L659.981 336.747C632.535 367.36 599.282 387.946 547.556 387.946C472.606 387.946 411.38 330.415 411.38 245.965V244.908C411.38 166.264 466.801 102.926 542.278 102.926ZM1201.17 105.036C1239.7 105.036 1269.26 115.066 1289.32 135.123C1307.79 153.597 1317.29 179.988 1317.29 214.824V381.611H1278.23V340.443C1259.23 365.251 1227.56 387.418 1179.53 387.418C1128.86 387.418 1077.66 358.388 1077.66 302.439V301.385C1077.66 243.853 1125.17 213.239 1194.31 213.239C1229.15 213.239 1253.95 217.99 1278.23 224.852V215.35C1278.23 166.263 1248.15 140.93 1196.95 140.93C1164.75 140.93 1139.42 149.373 1114.08 160.985L1101.94 127.734C1132.03 114.011 1161.58 105.036 1201.17 105.036ZM963.067 108.731H1049.63V144.622H963.067V304.023C963.067 337.276 981.541 349.417 1008.99 349.417C1022.71 349.417 1034.32 346.776 1048.57 339.914V374.751C1034.32 382.14 1019.02 386.363 999.486 386.363C955.678 386.363 922.426 364.722 922.426 309.302V144.622H884.423V108.731H922.426V26.3916H963.067V108.731ZM268.162 330.419L400.116 12.1436H444.98L286.108 384.254H158.873L0 12.1436H136.736L268.162 330.419ZM746.631 179.987C766.688 134.595 806.274 101.871 858 103.982V147.79H854.833C795.19 147.79 746.631 190.545 746.631 272.884V381.611H705.989V108.731H746.631V179.987ZM1198.53 243.325C1147.33 243.325 1118.83 265.492 1118.83 299.8V300.856C1118.83 335.164 1150.5 355.221 1187.45 355.221C1237.59 355.221 1278.76 324.607 1278.76 281.326V254.936C1258.7 249.13 1231.78 243.325 1198.53 243.325ZM541.223 137.234C493.719 137.234 457.827 176.821 452.549 230.13H628.312C624.09 180.515 595.588 137.234 541.223 137.234Z" fill="#0C0C0C"/>
<path d="M2235.27 101.187C2256.84 101.187 2275.68 105.124 2291.77 113C2308.21 120.876 2321.73 131.49 2332.35 144.845C2343.31 158.199 2351.52 173.779 2357 191.585C2362.48 209.391 2365.22 228.053 2365.22 247.571C2365.22 250.311 2365.05 253.051 2364.71 255.79C2364.71 258.529 2364.54 261.44 2364.19 264.521H2164.9C2168.67 286.779 2177.57 303.9 2191.61 315.885C2205.65 327.527 2222.77 333.348 2242.98 333.348C2258.38 333.348 2271.74 330.609 2283.04 325.13C2294.34 319.651 2305.47 311.604 2316.42 300.989L2352.89 333.348C2339.88 348.757 2324.3 361.085 2306.15 370.33C2288.35 379.575 2266.94 384.198 2241.95 384.198C2222.43 384.198 2204.11 380.773 2186.99 373.925C2170.21 367.076 2155.49 357.489 2142.82 345.162C2130.49 332.835 2120.73 318.11 2113.54 300.989C2106.35 283.526 2102.75 264.179 2102.75 242.949C2102.75 223.431 2106.01 205.111 2112.51 187.99C2119.02 170.869 2128.09 155.973 2139.74 143.304C2151.72 130.292 2165.76 120.02 2181.85 112.486C2197.95 104.953 2215.75 101.187 2235.27 101.187ZM1798.11 102.727C1838.51 102.727 1868.47 112.828 1887.99 133.031C1907.51 152.892 1917.27 180.97 1917.27 217.267V378.034H1855.63V344.648C1846.39 355.606 1834.57 364.851 1820.19 372.384C1805.81 379.917 1788.35 383.685 1767.8 383.685C1754.79 383.685 1742.46 381.801 1730.82 378.034C1719.18 374.61 1708.9 369.473 1700 362.625C1691.44 355.434 1684.42 346.702 1678.94 336.43C1673.81 325.815 1671.24 313.659 1671.24 299.962V298.935C1671.24 284.211 1673.98 271.37 1679.46 260.412C1684.93 249.455 1692.47 240.38 1702.06 233.189C1711.99 225.999 1723.63 220.691 1736.98 217.267C1750.68 213.5 1765.4 211.617 1781.16 211.617C1797.59 211.617 1811.46 212.645 1822.76 214.699C1834.4 216.754 1845.53 219.493 1856.15 222.917V216.24C1856.15 197.407 1850.32 183.025 1838.68 173.095C1827.38 163.165 1810.95 158.199 1789.37 158.199C1773.97 158.199 1760.27 159.74 1748.28 162.822C1736.3 165.904 1724.14 170.013 1711.82 175.149L1694.87 125.327C1709.93 118.479 1725.34 113 1741.09 108.891C1756.84 104.782 1775.85 102.727 1798.11 102.727ZM1512.19 13.3545C1538.56 13.3545 1562.19 17.2923 1583.07 25.168C1604.3 32.7012 1624.16 43.8306 1642.66 58.5547L1608.76 106.322C1592.32 94.3376 1576.05 85.2632 1559.96 79.0996C1543.87 72.5936 1527.6 69.3408 1511.17 69.3408C1492.67 69.3409 1478.29 73.6212 1468.02 82.1816C1457.75 90.3998 1452.61 100.502 1452.61 112.486C1452.61 119.677 1453.81 125.84 1456.21 130.977C1458.6 136.113 1462.88 140.907 1469.05 145.358C1475.55 149.81 1484.29 153.919 1495.24 157.686C1506.54 161.452 1520.75 165.39 1537.87 169.499C1556.71 174.293 1573.31 179.601 1587.7 185.422C1602.42 191.243 1614.58 198.434 1624.17 206.994C1633.75 215.212 1640.94 224.972 1645.74 236.271C1650.87 247.229 1653.44 260.241 1653.44 275.308C1653.44 292.429 1650.19 307.666 1643.68 321.021C1637.52 334.375 1628.79 345.676 1617.49 354.921C1606.19 364.166 1592.66 371.186 1576.91 375.979C1561.16 380.773 1543.87 383.171 1525.03 383.171C1497.3 383.171 1470.76 378.548 1445.42 369.303C1420.08 359.715 1396.63 345.162 1375.05 325.644L1413.06 280.444C1430.52 295.511 1448.16 307.153 1465.97 315.371C1483.77 323.247 1503.97 327.185 1526.57 327.185C1546.09 327.185 1561.5 323.076 1572.8 314.857C1584.44 306.639 1590.26 295.511 1590.26 281.472C1590.26 274.966 1589.07 269.144 1586.67 264.008C1584.62 258.872 1580.51 254.249 1574.34 250.14C1568.52 245.688 1560.3 241.579 1549.69 237.812C1539.41 234.046 1525.89 230.108 1509.11 225.999C1489.94 221.548 1472.81 216.582 1457.75 211.104C1443.02 205.625 1430.52 198.777 1420.25 190.559C1410.32 182.34 1402.62 172.41 1397.14 160.768C1392 149.125 1389.43 134.914 1389.43 118.136C1389.43 102.385 1392.52 88.1743 1398.68 75.5049C1404.84 62.4929 1413.23 51.3635 1423.85 42.1182C1434.81 32.8728 1447.82 25.8535 1462.88 21.0596C1477.95 15.9233 1494.39 13.3545 1512.19 13.3545ZM2057.45 0C2068.4 5.08628e-06 2077.82 0.685002 2085.7 2.05469C2093.57 3.42437 2100.93 5.1369 2107.78 7.19141V59.582C2101.62 57.5275 2095.63 55.9862 2089.8 54.959C2084.33 53.5894 2078.16 52.9043 2071.31 52.9043C2047.34 52.9043 2035.36 66.6014 2035.36 93.9951V108.891H2107.27V160.254H2036.39V378.034H1974.24V160.254H1939.82V108.377H1974.24V88.8584C1974.24 58.7255 1981.43 36.4686 1995.81 22.0869C2010.19 7.36277 2030.74 0 2057.45 0ZM1795.02 252.194C1775.51 252.194 1760.27 255.961 1749.31 263.494C1738.35 271.027 1732.87 281.813 1732.87 295.853V296.88C1732.87 309.892 1737.84 319.822 1747.77 326.671C1758.04 333.519 1770.54 336.943 1785.26 336.943C1795.54 336.943 1804.95 335.573 1813.51 332.834C1822.42 330.095 1830.12 326.328 1836.63 321.534C1843.13 316.398 1848.1 310.406 1851.52 303.558C1855.29 296.367 1857.17 288.491 1857.17 279.931V262.98C1849.3 259.899 1839.88 257.331 1828.92 255.276C1818.31 253.222 1807.01 252.194 1795.02 252.194ZM2234.76 152.036C2215.58 152.036 2199.66 158.713 2186.99 172.067C2174.66 185.079 2167.13 202.201 2164.39 223.431H2303.58C2302.56 213.5 2300.33 204.255 2296.91 195.694C2293.48 186.791 2288.86 179.258 2283.04 173.095C2277.22 166.589 2270.2 161.452 2261.98 157.686C2254.1 153.919 2245.03 152.036 2234.76 152.036Z" fill="url(#paint0_linear_10128_182)"/>
</g>
<defs>
<linearGradient id="paint0_linear_10128_182" x1="1420.1" y1="378.317" x2="2226.27" y2="833.886" gradientUnits="userSpaceOnUse">
<stop stop-color="#7F99F5"/>
<stop offset="1" stop-color="#CDD8FF"/>
</linearGradient>
<clipPath id="clip0_10128_182">
<rect width="2365.22" height="387.946" fill="white"/>
</clipPath>
</defs>
</svg>
