<svg width="203" height="58" viewBox="0 0 203 58" fill="none" xmlns="http://www.w3.org/2000/svg">
<path d="M24.384 57.117H43.9082L68.2871 0.0168457H61.4027L41.1544 48.856L20.9871 0.0168457H0.00506592L24.384 57.117Z" fill="#2B2B2B"/>
<path d="M84.0272 57.6836C91.9646 57.6836 97.0672 54.5247 101.279 49.8271L97.3911 46.3445C93.9894 49.9082 89.9398 52.2569 84.1893 52.2569C76.7379 52.2569 70.3394 47.1543 69.4485 38.0831H102.656C102.737 37.3541 102.737 36.8682 102.737 36.0582C102.737 23.8283 95.6093 13.9473 83.2173 13.9473C71.6353 13.9473 63.131 23.6664 63.131 35.7344V35.8965C63.131 48.8554 72.5262 57.6836 84.0272 57.6836ZM69.4485 33.4667C70.2584 25.2864 75.766 19.2118 83.0553 19.2118C91.3976 19.2118 95.7713 25.8533 96.4192 33.4667H69.4485Z" fill="#2B2B2B"/>
<path d="M108.339 56.7114H114.575V40.0271C114.575 27.3922 122.027 20.8316 131.179 20.8316H131.665V14.1093C123.727 13.7853 117.653 18.8068 114.575 25.7722V14.8382H108.339V56.7114Z" fill="#2B2B2B"/>
<path d="M153.376 57.4408C156.372 57.4408 158.721 56.7927 160.908 55.6588V50.3131C158.721 51.366 156.939 51.7712 154.834 51.7712C150.622 51.7712 147.787 49.9083 147.787 44.8057V20.3456H161.07V14.8383H147.787V2.20325H141.551V14.8383H135.719V20.3456H141.551V45.6157C141.551 54.12 146.653 57.4408 153.376 57.4408Z" fill="#2B2B2B"/>
<path d="M181.003 57.6025C188.374 57.6025 193.233 54.2008 196.149 50.3942V56.7115H202.143V31.1179C202.143 25.7724 200.685 21.7226 197.85 18.8879C194.772 15.8101 190.237 14.2711 184.324 14.2711C178.25 14.2711 173.714 15.6482 169.097 17.7541L170.96 22.8565C174.848 21.0746 178.736 19.7789 183.676 19.7789C191.532 19.7789 196.149 23.6662 196.149 31.1986V32.6567C192.423 31.6038 188.617 30.8747 183.271 30.8747C172.661 30.8747 165.372 35.5725 165.372 44.4007V44.5625C165.372 53.1478 173.228 57.6025 181.003 57.6025ZM182.218 52.6618C176.549 52.6618 171.689 49.5842 171.689 44.3197V44.1575C171.689 38.893 176.063 35.4915 183.919 35.4915C189.022 35.4915 193.152 36.3822 196.23 37.2731V41.3228C196.23 47.9642 189.913 52.6618 182.218 52.6618Z" fill="#2B2B2B"/>
</svg>
