<svg width="159" height="63" viewBox="0 0 159 63" fill="none" xmlns="http://www.w3.org/2000/svg">
<g clip-path="url(#clip0_2316_84426)">
<path d="M14.5541 12.9432V0.527588H18.4167V12.9432C18.4167 16.4484 20.6741 17.9909 23.941 17.9909C27.1766 17.9909 29.4089 16.4484 29.4089 12.9432V0.527588H33.2715V12.9432C33.2715 19.0005 29.0515 21.678 23.9159 21.678C18.7741 21.678 14.5541 19.0005 14.5541 12.9432Z" fill="white"/>
<path d="M58.6646 21.1137V21.3206H54.5636L49.4532 13.7458H43.2203V21.3206H39.3577V0.527588H50.4377C54.3881 0.527588 57.4794 3.23018 57.4794 7.14924C57.5057 8.47044 57.1194 9.76696 56.3743 10.8583C55.6291 11.9496 54.5622 12.7814 53.3221 13.2379L58.6646 21.1137ZM43.2203 10.3284H50.1116C52.0993 10.3284 53.6168 9.13699 53.6168 7.21195C53.6168 5.24928 52.0993 4.06415 50.1116 4.06415H43.2203V10.3284Z" fill="white"/>
<path d="M63.3638 0.527588H74.7698C78.3315 0.527588 80.6829 3.02325 80.6829 6.17104C80.72 7.0718 80.5026 7.9648 80.0557 8.74775C79.6088 9.53069 78.9504 10.1719 78.1559 10.598C79.2913 10.8719 80.2967 11.5308 81.001 12.4626C81.7052 13.3944 82.0648 14.5414 82.0185 15.7085C82.0185 19.1259 79.3724 21.3206 76.1054 21.3206H63.3638V0.527588ZM74.055 9.2624C75.748 9.2624 76.8203 8.25285 76.8203 6.59117C76.8203 4.95456 75.7543 3.91993 74.055 3.91993H67.2201V9.26867H74.055V9.2624ZM75.3655 17.9032C77.0586 17.9032 78.1559 16.8623 78.1559 15.2319C78.1771 14.8639 78.1187 14.4956 77.9847 14.1522C77.8507 13.8088 77.6443 13.4982 77.3795 13.2418C77.1147 12.9853 76.7977 12.7889 76.4502 12.666C76.1026 12.543 75.7327 12.4964 75.3655 12.5293H67.2264V17.9032H75.3655Z" fill="white"/>
<path d="M130.382 0.527588V21.3206H126.964L115.232 6.85453V21.3206H111.37V0.527588H114.787L126.519 14.9936V0.527588H130.382Z" fill="white"/>
<path d="M135.907 10.9251C135.907 5.01197 140.334 0.171143 146.955 0.171143C153.577 0.171143 158.035 5.01197 158.035 10.9251C158.035 16.8381 153.577 21.679 146.955 21.679C140.334 21.679 135.907 16.8381 135.907 10.9251ZM154.148 10.9251C154.148 6.94329 151.382 3.82685 146.962 3.82685C142.566 3.82685 139.801 6.94329 139.801 10.9251C139.801 14.9068 142.566 17.9919 146.962 17.9919C151.382 17.9919 154.148 14.9068 154.148 10.9251Z" fill="white"/>
<path d="M103.186 5.66313C102.083 3.75452 100.698 2.0232 99.0786 0.527588H93.918L88.3122 12.9808L84.6941 21.051V21.3206H88.7887L91.3847 15.4514C97.1536 15.9781 100.985 19.5084 102.822 21.3206C102.822 21.3206 106.704 21.308 106.704 21.3018C106.691 20.9067 106.848 11.6264 103.186 5.66313ZM92.7015 12.1907L96.4952 3.44964C99.737 5.04862 102.44 11.6138 103.048 17.3075C100.621 15.3887 97.2727 12.8805 92.7015 12.1907Z" fill="white"/>
<path d="M-0.000366211 25.917V25.6787H4.10054L10.8163 41.8692L17.532 25.6787H21.6329V25.917L12.8103 46.4717H8.85986L-0.000366211 25.917Z" fill="white"/>
<path d="M29.8857 25.6787V46.4717H26.0231V25.6787H29.8857Z" fill="white"/>
<path d="M53.5879 29.3031H46.0131V46.4717H42.1505V29.3031H34.5757V25.6787H53.5879V29.3031Z" fill="white"/>
<path d="M95.863 42.8474V46.4717H79.823V25.6787H83.6856V42.8474H95.863Z" fill="white"/>
<path d="M104.741 25.6787V46.4717H100.878V25.6787H104.741Z" fill="white"/>
<path d="M130.382 25.6787V46.4717H126.964L115.232 32.0057V46.4717H111.37V25.6787H114.787L126.519 40.1448V25.6787H130.382Z" fill="white"/>
<path d="M135.907 36.0752C135.907 30.1621 140.334 25.3213 146.955 25.3213C153.577 25.3213 158.035 30.1621 158.035 36.0752C158.035 41.9883 153.577 46.8291 146.955 46.8291C140.334 46.8291 135.907 41.9883 135.907 36.0752ZM154.148 36.0752C154.148 32.0934 151.382 28.977 146.962 28.977C142.566 28.977 139.801 32.0934 139.801 36.0752C139.801 40.057 142.566 43.1421 146.962 43.1421C151.382 43.1421 154.148 40.057 154.148 36.0752Z" fill="white"/>
<path d="M71.6391 30.8143C70.536 28.9056 69.1514 27.1743 67.5319 25.6787H62.3713L56.7654 38.1319L53.1473 46.2021V46.4717H57.242L59.838 40.6025C65.6068 41.1292 69.4381 44.6595 71.2754 46.4717C71.2754 46.4717 75.1568 46.4592 75.1568 46.4529C75.1443 46.0579 75.2948 36.7775 71.6391 30.8143ZM61.1548 37.3419L64.9484 28.6008C68.1903 30.1997 70.8929 36.765 71.5011 42.4586C69.0681 40.5398 65.726 38.0316 61.1548 37.3419Z" fill="white"/>
<path d="M26.1339 61.472V61.541H25.4567L24.4785 59.4905H19.4057L18.4275 61.541H17.7502V61.472L21.6568 53.3831H22.2148L26.1339 61.472ZM24.1901 58.8697L21.9515 54.1982L19.7129 58.8697H24.1901Z" fill="white"/>
<path d="M41.8952 57.4575C41.8954 58.0081 41.7843 58.553 41.5686 59.0595C41.3529 59.566 41.0369 60.0237 40.6398 60.405C40.2427 60.7863 39.7726 61.0833 39.2577 61.2783C38.7429 61.4733 38.1939 61.5622 37.6438 61.5396H34.5713V53.3817H37.6501C38.1992 53.3596 38.7472 53.4487 39.2611 53.6435C39.775 53.8384 40.2442 54.135 40.6406 54.5156C41.0371 54.8963 41.3525 55.353 41.5681 55.8586C41.7837 56.3641 41.895 56.908 41.8952 57.4575ZM41.2431 57.4575C41.2476 56.99 41.1565 56.5264 40.9754 56.0953C40.7944 55.6642 40.5271 55.2746 40.1901 54.9505C39.853 54.6264 39.4533 54.3746 39.0155 54.2105C38.5776 54.0464 38.1109 53.9735 37.6438 53.9962H35.2172V60.9189H37.6438C38.1109 60.9416 38.5776 60.8687 39.0155 60.7046C39.4533 60.5405 39.853 60.2887 40.1901 59.9645C40.5271 59.6404 40.7943 59.2509 40.9754 58.8198C41.1565 58.3887 41.2476 57.9251 41.2431 57.4575Z" fill="white"/>
<path d="M49.4097 53.452V53.3831H50.0869L53.5043 60.7133L56.9092 53.3831H57.5864V53.452L53.7865 61.541H53.2033L49.4097 53.452Z" fill="white"/>
<path d="M65.0917 57.4586C65.0741 56.608 65.3102 55.7715 65.7698 55.0556C66.2294 54.3397 66.8918 53.7768 67.6725 53.4388C68.4532 53.1008 69.3169 53.0029 70.1534 53.1576C70.99 53.3123 71.7615 53.7126 72.3697 54.3074C72.9779 54.9023 73.3952 55.6648 73.5684 56.4977C73.7416 57.3306 73.6629 58.1963 73.3423 58.9843C73.0217 59.7723 72.4737 60.447 71.7681 60.9224C71.0626 61.3977 70.2315 61.6523 69.3808 61.6535C68.8204 61.6722 68.2621 61.5772 67.7395 61.3742C67.2169 61.1712 66.7408 60.8644 66.34 60.4724C65.9392 60.0804 65.6219 59.6112 65.4074 59.0932C65.1928 58.5753 65.0855 58.0192 65.0917 57.4586ZM73.0051 57.4586C73.0151 56.7381 72.8106 56.0309 72.4174 55.427C72.0243 54.8232 71.4604 54.3499 70.7975 54.0675C70.1346 53.7852 69.4026 53.7064 68.6948 53.8413C67.987 53.9761 67.3353 54.3186 66.8227 54.825C66.3101 55.3314 65.9598 55.9788 65.8163 56.685C65.6728 57.3911 65.7426 58.1239 66.0169 58.7902C66.2912 59.4565 66.7575 60.0262 67.3566 60.4266C67.9556 60.8271 68.6602 61.0403 69.3808 61.039C69.8573 61.0548 70.332 60.9733 70.776 60.7995C71.2199 60.6258 71.6238 60.3633 71.963 60.0283C72.3022 59.6932 72.5695 59.2925 72.7487 58.8507C72.9278 58.4089 73.0151 57.9352 73.0051 57.4586Z" fill="white"/>
<path d="M90.0118 57.4147V60.1424C89.562 60.6381 89.0102 61.0304 88.3942 61.2923C87.7783 61.5543 87.1129 61.6797 86.4439 61.6598C83.6221 61.6598 82.0044 59.7599 82.0044 57.4962C81.9889 56.9325 82.0893 56.3715 82.2993 55.8481C82.5093 55.3247 82.8245 54.8499 83.2253 54.4532C83.6262 54.0564 84.1042 53.7462 84.6297 53.5416C85.1553 53.3369 85.7173 53.2424 86.2808 53.2636C87.02 53.2287 87.754 53.404 88.3977 53.7691C89.0414 54.1342 89.5684 54.6743 89.9177 55.3266L89.3597 55.6276C89.0707 55.0722 88.6278 54.6118 88.084 54.3015C87.5402 53.9913 86.9186 53.8443 86.2934 53.8781C85.813 53.8557 85.3332 53.9332 84.8844 54.1056C84.4355 54.2781 84.0272 54.5418 83.6854 54.88C83.3436 55.2183 83.0757 55.6238 82.8986 56.0708C82.7215 56.5179 82.6391 56.9969 82.6565 57.4774C82.6565 59.5153 84.105 61.0328 86.4439 61.0328C86.995 61.054 87.5443 60.957 88.0548 60.7483C88.5653 60.5395 89.0252 60.2239 89.4036 59.8226V58.0041H86.5818V57.4084H90.0118V57.4147Z" fill="white"/>
<path d="M106.029 61.472V61.541H105.352L104.374 59.4905H99.3007L98.3225 61.541H97.6453V61.472L101.552 53.3831H102.11L106.029 61.472ZM104.079 58.8697L101.84 54.1982L99.6017 58.8697H104.079Z" fill="white"/>
<path d="M121.779 57.4577C121.779 58.0082 121.668 58.5531 121.453 59.0596C121.237 59.5662 120.921 60.0238 120.524 60.4051C120.127 60.7864 119.657 61.0835 119.142 61.2785C118.627 61.4735 118.078 61.5624 117.528 61.5398H114.455V53.3819H117.534C118.083 53.3592 118.632 53.4479 119.146 53.6426C119.66 53.8372 120.129 54.1339 120.526 54.5146C120.922 54.8953 121.238 55.3523 121.453 55.8581C121.669 56.3639 121.78 56.908 121.779 57.4577ZM121.127 57.4577C121.132 56.9901 121.041 56.5266 120.859 56.0955C120.678 55.6644 120.411 55.2748 120.074 54.9507C119.737 54.6266 119.337 54.3747 118.9 54.2106C118.462 54.0465 117.995 53.9736 117.528 53.9964H115.101V60.919H117.528C117.995 60.9423 118.462 60.8697 118.9 60.7058C119.338 60.5419 119.738 60.2901 120.075 59.9659C120.412 59.6417 120.68 59.2519 120.861 58.8206C121.041 58.3892 121.132 57.9254 121.127 57.4577Z" fill="white"/>
<path d="M130.127 57.4586C130.109 56.608 130.345 55.7715 130.805 55.0556C131.264 54.3397 131.927 53.7768 132.707 53.4388C133.488 53.1008 134.352 53.0029 135.188 53.1576C136.025 53.3123 136.796 53.7126 137.405 54.3074C138.013 54.9023 138.43 55.6648 138.603 56.4977C138.777 57.3306 138.698 58.1963 138.377 58.9843C138.057 59.7723 137.509 60.447 136.803 60.9224C136.098 61.3977 135.266 61.6523 134.416 61.6535C133.855 61.6722 133.297 61.5772 132.774 61.3742C132.252 61.1712 131.776 60.8644 131.375 60.4724C130.974 60.0804 130.657 59.6112 130.442 59.0932C130.228 58.5753 130.12 58.0192 130.127 57.4586ZM138.04 57.4586C138.05 56.7381 137.845 56.0309 137.452 55.427C137.059 54.8232 136.495 54.3499 135.832 54.0675C135.169 53.7852 134.438 53.7064 133.73 53.8413C133.022 53.9761 132.37 54.3186 131.858 54.825C131.345 55.3314 130.995 55.9788 130.851 56.685C130.708 57.3911 130.778 58.1239 131.052 58.7902C131.326 59.4565 131.792 60.0262 132.391 60.4266C132.99 60.8271 133.695 61.0403 134.416 61.039C134.892 61.0548 135.367 60.9733 135.811 60.7995C136.255 60.6258 136.659 60.3633 136.998 60.0283C137.337 59.6932 137.604 59.2925 137.784 58.8507C137.963 58.4089 138.05 57.9352 138.04 57.4586Z" fill="white"/>
<path d="M146.955 60.455L147.319 59.922C147.759 60.313 148.272 60.613 148.828 60.8046C149.385 60.9962 149.974 61.0756 150.561 61.0382C152.367 61.0382 153.427 60.3296 153.427 59.1633C153.427 58.1161 152.342 58.0221 150.442 57.765C148.868 57.5455 147.118 57.3198 147.118 55.7145C147.118 54.2472 148.435 53.269 150.392 53.269C152.06 53.269 153.307 54.0403 153.759 55.1314L153.213 55.4324C152.85 54.4981 151.846 53.8835 150.367 53.8835C148.724 53.8835 147.764 54.6172 147.764 55.6895C147.764 56.7241 148.849 56.9122 150.505 57.1317C152.241 57.3762 154.072 57.4703 154.072 59.157C154.072 60.756 152.637 61.6527 150.542 61.6527C149.238 61.7195 147.958 61.2918 146.955 60.455Z" fill="white"/>
</g>
<defs>
<clipPath id="clip0_2316_84426">
<rect width="158.644" height="62.078" fill="white"/>
</clipPath>
</defs>
</svg>
